<?xml version="1.0" standalone="no"?>
<!DOCTYPE svg PUBLIC "-//W3C//DTD SVG 20010904//EN"
 "http://www.w3.org/TR/2001/REC-SVG-20010904/DTD/svg10.dtd">
<svg version="1.0" xmlns="http://www.w3.org/2000/svg"
 width="1428.000000pt" height="1522.000000pt" viewBox="0 0 1428.000000 1522.000000"
 preserveAspectRatio="xMidYMid meet">

<g transform="translate(0.000000,1522.000000) scale(0.100000,-0.100000)"
fill="#000000" stroke="none">
<path d="M9219 15205 c-214 -35 -573 -129 -939 -246 -391 -125 -462 -146 -582
-173 -206 -46 -319 -59 -528 -59 -257 0 -405 23 -659 104 -116 37 -356 95
-476 115 -49 8 -157 18 -240 21 -647 25 -1215 -270 -1574 -817 -66 -100 -168
-296 -159 -305 3 -3 288 26 634 64 905 101 940 104 1209 98 143 -3 271 -11
340 -22 243 -38 520 -125 660 -207 105 -62 211 -174 262 -278 79 -159 107
-364 69 -495 -24 -80 -96 -153 -176 -178 -108 -33 -568 -49 -796 -26 -232 22
-732 145 -1574 385 -600 172 -699 196 -871 215 -130 14 -386 6 -497 -16 -283
-55 -522 -183 -727 -390 -139 -139 -225 -260 -319 -450 -129 -259 -186 -433
-342 -1054 -57 -228 -104 -417 -104 -421 0 -5 18 -15 41 -24 l41 -17 72 56
c316 246 481 355 736 484 411 208 813 327 1315 387 213 26 761 26 995 1 393
-43 598 -88 1308 -289 345 -98 362 -105 423 -185 36 -49 37 -87 1 -144 -86
-135 -333 -234 -847 -339 -659 -134 -1187 -197 -2575 -305 -1011 -79 -1425
-118 -1895 -181 -322 -42 -407 -58 -498 -91 -260 -93 -441 -259 -563 -517 -80
-170 -143 -456 -151 -686 -8 -224 58 -919 122 -1286 36 -206 71 -286 140 -319
106 -50 228 43 495 375 188 235 463 553 575 665 247 248 795 596 1270 806 687
303 1498 480 2215 483 190 1 225 -2 301 -21 192 -49 280 -98 318 -176 65 -135
-29 -255 -288 -367 -48 -21 -216 -84 -372 -140 -1456 -523 -2316 -874 -3164
-1289 -630 -309 -1024 -552 -1390 -860 -138 -116 -348 -329 -393 -399 -90
-139 -82 -222 53 -552 54 -132 234 -662 366 -1080 50 -157 92 -287 94 -288 2
-2 36 13 76 35 67 35 101 66 389 369 534 559 753 796 936 1012 304 356 474
515 844 794 416 312 863 585 1390 849 632 316 1009 459 1579 600 148 37 168
40 210 29 52 -12 231 -79 231 -86 0 -14 -102 -203 -122 -226 -47 -53 -421
-306 -633 -428 -60 -35 -465 -243 -900 -462 -1817 -920 -1975 -1004 -2387
-1279 -552 -369 -1073 -851 -1510 -1396 -113 -141 -145 -188 -187 -270 -66
-132 -77 -278 -31 -428 12 -38 64 -151 115 -250 115 -222 229 -471 375 -816
62 -145 163 -383 225 -529 62 -146 118 -282 126 -302 7 -21 16 -38 19 -38 3 0
145 284 315 632 339 690 584 1169 690 1348 162 272 349 535 555 780 135 161
459 486 620 624 691 592 1540 1062 2635 1461 266 97 358 115 424 81 68 -36
118 -125 108 -196 -8 -61 -34 -104 -119 -195 -174 -186 -409 -341 -978 -645
-959 -512 -1893 -1281 -2714 -2235 -433 -503 -1069 -1369 -1121 -1525 -27 -81
-18 -189 22 -270 71 -142 345 -480 587 -724 187 -188 531 -495 542 -483 2 2
11 145 19 318 34 709 45 811 156 1360 91 458 123 545 302 846 177 296 741
1134 850 1261 270 318 616 507 1039 567 229 33 657 13 766 -35 52 -23 182
-117 182 -132 0 -16 -84 -120 -137 -169 -27 -25 -116 -90 -198 -144 -455 -298
-479 -316 -743 -564 -597 -563 -1154 -1263 -1545 -1941 -88 -154 -434 -844
-456 -909 -18 -56 -14 -125 10 -155 45 -57 60 -60 354 -61 285 -1 376 -11 595
-60 329 -74 686 -219 1085 -440 349 -193 427 -234 535 -284 62 -28 114 -50
116 -48 2 1 16 39 33 84 87 235 180 338 381 421 216 88 987 284 1619 412 381
77 461 120 461 250 0 67 -15 109 -95 275 -113 232 -166 409 -196 648 -15 127
-6 547 16 722 56 449 81 933 66 1249 -15 297 -30 376 -161 831 -111 389 -137
571 -126 870 16 419 50 523 196 588 155 70 411 -45 555 -248 111 -157 121
-202 129 -580 4 -165 14 -511 23 -770 20 -568 22 -1533 5 -1790 -20 -291 -42
-517 -71 -720 -16 -104 -27 -191 -26 -192 2 -4 1129 901 1467 1178 164 134
295 248 311 272 56 83 61 120 54 462 -10 455 -41 937 -73 1120 -43 249 -121
479 -248 733 -91 182 -147 275 -321 532 -244 361 -356 554 -704 1206 -100 188
-192 374 -206 413 -13 39 -31 116 -41 172 -22 133 -11 191 48 255 77 83 162
84 325 5 201 -98 377 -227 550 -403 125 -127 183 -199 285 -353 180 -273 329
-639 441 -1080 142 -560 197 -1039 217 -1890 10 -419 24 -754 37 -858 l6 -47
361 363 c365 367 541 528 936 852 299 246 328 271 351 317 26 51 23 126 -8
184 -11 21 -49 95 -86 164 -72 136 -146 307 -539 1245 -461 1098 -496 1177
-621 1395 -159 277 -296 455 -557 725 -162 168 -247 271 -353 425 -136 200
-163 364 -69 424 57 36 141 60 208 61 57 0 72 -6 265 -102 309 -154 419 -230
676 -471 353 -330 745 -803 1208 -1457 167 -236 496 -697 502 -705 7 -8 21 23
89 200 98 255 122 308 378 820 127 256 244 501 259 546 81 249 44 490 -105
670 -48 58 -319 318 -503 483 -429 384 -668 517 -1545 861 -552 216 -608 244
-661 329 -45 71 -35 137 32 223 48 60 162 135 242 160 59 18 83 19 170 14 160
-11 313 -35 401 -63 147 -46 779 -401 1426 -801 254 -157 309 -197 588 -420
133 -107 244 -193 246 -191 5 5 146 678 181 864 31 160 30 228 -3 296 -19 39
-47 65 -170 156 -355 265 -617 431 -897 568 -779 381 -1560 411 -2279 88 -401
-180 -863 -528 -1048 -789 -32 -45 -118 -180 -191 -300 -73 -120 -139 -229
-147 -240 -12 -19 -10 -25 14 -57 27 -35 28 -35 119 -41 51 -3 169 -8 262 -11
800 -27 1274 -102 1700 -272 164 -65 263 -113 400 -196 516 -309 1078 -884
1310 -1341 51 -100 111 -265 104 -284 -2 -6 -35 41 -74 105 -120 198 -320 493
-412 607 -610 762 -1375 1187 -2318 1290 -288 31 -745 29 -953 -4 -79 -13
-176 -65 -243 -130 -48 -48 -69 -83 -162 -270 -58 -118 -154 -325 -213 -460
-100 -228 -108 -250 -112 -321 l-4 -76 144 -27 c764 -144 1314 -444 1723 -941
437 -531 732 -1321 834 -2230 43 -382 57 -946 25 -1038 -19 -55 -34 -61 -34
-13 0 85 -41 933 -50 1031 -43 465 -127 859 -255 1190 -199 516 -513 990 -850
1285 -381 334 -788 530 -1308 629 -178 34 -249 26 -318 -37 -49 -43 -47 -39
-247 -477 -88 -193 -217 -471 -287 -620 -117 -248 -128 -276 -132 -340 -8
-114 19 -158 171 -279 269 -214 492 -463 672 -748 193 -305 402 -816 503
-1230 111 -452 136 -790 125 -1665 -6 -438 -9 -533 -20 -533 -12 0 -14 95 -14
553 0 589 -9 829 -41 1077 -89 702 -366 1436 -718 1904 -142 188 -317 369
-506 520 -94 76 -263 196 -275 196 -4 0 -42 -91 -85 -202 -156 -407 -199 -507
-306 -731 -122 -253 -185 -428 -223 -617 -80 -403 -57 -765 83 -1337 183 -743
268 -1304 302 -1978 21 -429 -5 -1012 -58 -1265 -14 -69 -28 -137 -30 -152 -5
-29 -33 -40 -33 -13 0 8 9 70 20 137 53 328 73 775 51 1143 -53 906 -265 2149
-498 2920 -7 22 -18 -6 -173 -425 -330 -893 -614 -1829 -869 -2859 -54 -218
-111 -454 -127 -526 -53 -238 -36 -102 26 206 147 731 335 1465 622 2422 44
148 78 271 75 273 -6 6 -215 -124 -430 -269 -692 -464 -1337 -1058 -1696
-1561 -242 -340 -456 -774 -581 -1176 -23 -74 -48 -153 -56 -175 -28 -79 -4
91 33 239 151 602 464 1142 979 1686 353 374 736 689 1234 1018 129 85 272
179 317 209 142 94 261 228 338 383 15 30 56 138 90 240 35 102 132 381 216
620 128 365 216 654 203 669 -1 1 -454 -233 -1006 -522 -552 -288 -1023 -534
-1048 -546 l-45 -22 50 46 c28 26 79 66 115 90 96 64 792 433 1425 755 366
187 428 224 519 309 108 103 173 211 250 419 56 149 150 384 314 782 107 262
182 464 182 494 0 14 -148 5 -243 -15 -157 -31 -481 -115 -697 -179 -1162
-348 -2300 -902 -3510 -1710 -857 -572 -1533 -1135 -2564 -2135 -252 -245
-427 -405 -442 -405 -37 0 182 249 475 540 1710 1702 3487 2866 5471 3583 382
138 758 254 1176 361 273 70 353 102 403 163 25 30 561 1078 561 1096 0 11
-94 29 -128 24 -84 -12 -1424 -259 -1637 -302 -806 -161 -1682 -394 -2405
-640 -1205 -411 -2242 -929 -3122 -1561 -351 -252 -639 -489 -988 -815 -120
-111 -206 -177 -217 -165 -19 19 460 501 682 685 699 583 1556 1078 2690 1556
1354 570 2905 984 4575 1220 292 41 376 61 474 113 130 68 199 160 285 382 23
58 119 259 213 447 95 188 169 345 165 349 -6 6 -2057 -47 -2562 -66 -1087
-43 -1968 -158 -2797 -365 -379 -95 -704 -198 -1123 -355 -457 -171 -794 -279
-1530 -490 -253 -72 -557 -160 -675 -194 -211 -62 -330 -87 -330 -68 0 20 12
24 885 287 660 199 1049 322 1340 426 1052 373 1809 572 2624 689 496 71 726
87 1521 105 360 8 727 17 815 20 88 3 489 17 890 31 493 17 752 29 797 39 212
44 328 191 354 452 l7 63 -38 16 c-21 9 -115 27 -209 40 -601 84 -1204 245
-1791 477 -278 109 -393 161 -765 342 -184 90 -409 193 -500 228 -449 177
-932 286 -1490 337 -432 40 -1266 21 -1670 -36 -127 -18 -337 -61 -557 -113
-90 -21 -163 -37 -163 -35 0 10 155 80 243 109 163 54 618 123 1042 157 235
19 805 16 1035 -6 819 -75 1464 -263 2235 -649 670 -335 1332 -563 1978 -682
177 -32 567 -85 630 -85 113 0 197 76 213 194 13 93 -34 154 -179 230 -272
142 -685 434 -1017 720 -157 135 -580 561 -722 728 -69 81 -195 237 -279 345
-321 415 -607 657 -1004 853 -257 126 -526 213 -846 272 -111 20 -155 23 -416
23 -160 0 -286 3 -278 7 21 12 175 46 240 53 71 8 336 -9 485 -31 246 -36 514
-112 735 -209 436 -193 792 -480 1144 -920 224 -279 359 -433 581 -659 354
-360 671 -629 1010 -857 120 -81 693 -439 697 -436 4 4 89 551 107 687 40 296
73 708 82 1020 12 429 -30 838 -122 1179 -67 246 -171 433 -291 522 -76 56
-97 67 -180 95 -97 33 -271 41 -404 19z m346 -47 c150 -31 294 -151 377 -313
106 -207 183 -532 219 -925 16 -179 13 -647 -6 -895 -32 -423 -62 -669 -133
-1107 l-27 -168 -316 198 c-173 109 -368 236 -433 282 -293 209 -599 474 -891
772 -219 223 -357 379 -575 653 -155 194 -398 446 -540 559 -346 276 -763 472
-1191 560 -281 58 -599 80 -759 52 -102 -18 -261 -68 -350 -110 l-55 -26 330
5 c369 6 479 -1 695 -45 285 -57 495 -128 745 -250 385 -188 667 -424 968
-813 417 -537 792 -924 1252 -1292 244 -194 615 -444 792 -534 137 -69 182
-124 164 -203 -19 -83 -66 -130 -141 -143 -71 -12 -579 63 -881 130 -580 129
-1109 323 -1776 651 -587 288 -1013 436 -1563 543 -425 82 -685 105 -1195 105
-426 0 -570 -8 -940 -55 -516 -65 -702 -120 -970 -287 -44 -28 -82 -49 -83
-47 -9 8 114 228 176 315 130 184 330 358 521 455 284 143 650 180 1025 104
55 -11 309 -80 565 -154 596 -171 776 -220 1101 -299 500 -123 570 -131 985
-123 314 6 392 15 465 52 62 32 130 109 155 176 27 72 27 231 1 344 -61 268
-219 448 -491 560 -278 115 -581 168 -950 167 -238 0 -386 -13 -1259 -112
-242 -28 -441 -48 -443 -46 -8 7 64 140 127 236 262 398 654 669 1099 760 168
34 334 45 495 32 193 -16 425 -64 636 -131 265 -84 398 -105 675 -105 332 -1
519 34 980 184 521 169 927 276 1140 300 78 9 204 4 280 -12z m-4655 -2492
c485 -50 852 -125 1240 -256 233 -78 379 -140 720 -308 328 -161 491 -234 750
-337 592 -235 1230 -404 1829 -485 75 -10 149 -23 164 -29 26 -10 27 -14 22
-48 -46 -272 -145 -383 -368 -413 -109 -15 -1595 -65 -2387 -80 -294 -5 -618
-15 -720 -20 -1007 -57 -2040 -272 -3145 -655 -777 -270 -904 -311 -1860 -599
-615 -185 -665 -201 -706 -221 -25 -13 -114 -104 -107 -109 1 -2 55 0 118 5
95 7 147 17 300 63 102 30 376 109 610 176 786 224 1185 352 1655 528 969 364
1904 564 3085 661 466 39 676 47 2082 86 885 25 1208 30 1208 20 0 -3 -63
-130 -139 -283 -150 -298 -171 -344 -232 -495 -49 -123 -91 -189 -158 -249
-104 -93 -189 -120 -566 -173 -1734 -247 -3309 -675 -4715 -1283 -1323 -572
-2274 -1176 -2970 -1888 -91 -93 -196 -204 -234 -246 l-68 -78 26 -35 c15 -19
29 -35 31 -35 23 0 154 104 292 231 208 193 243 224 418 369 1302 1079 2884
1824 5040 2375 531 136 947 223 1840 385 275 50 571 104 658 121 87 16 167 27
177 24 16 -5 0 -45 -144 -338 -184 -376 -349 -692 -378 -723 -37 -41 -132 -76
-376 -139 -2278 -587 -4308 -1738 -6231 -3534 -265 -248 -714 -700 -816 -824
-91 -109 -99 -124 -121 -200 -12 -45 -21 -83 -19 -85 10 -11 273 223 524 465
1058 1025 1721 1579 2566 2143 1242 829 2342 1366 3525 1720 326 97 752 200
830 200 30 0 31 -1 25 -32 -3 -18 -56 -157 -117 -308 -199 -493 -334 -833
-382 -955 -73 -191 -166 -314 -313 -416 -43 -30 -265 -149 -493 -265 -546
-277 -1257 -655 -1344 -713 -85 -56 -214 -176 -280 -261 l-50 -63 175 91 c96
50 595 312 1109 581 514 269 937 488 938 486 11 -11 -34 -158 -140 -459 -66
-188 -164 -469 -218 -626 -53 -157 -112 -314 -130 -350 -78 -156 -198 -283
-375 -395 -757 -481 -1229 -872 -1682 -1395 -407 -469 -665 -953 -820 -1540
-25 -96 -27 -120 -27 -270 1 -91 6 -185 11 -210 l9 -45 33 137 c142 600 388
1130 734 1588 360 475 967 1024 1614 1457 268 180 346 227 339 206 -365 -1211
-586 -2094 -735 -2937 -41 -230 -121 -761 -121 -803 0 -31 38 -32 45 -1 3 13
32 154 66 313 264 1261 602 2497 975 3568 101 289 262 728 270 736 9 9 16 -14
69 -220 209 -819 372 -1881 407 -2662 17 -386 -9 -804 -71 -1133 -10 -52 -15
-96 -12 -98 3 -2 29 -7 58 -11 l51 -7 17 74 c73 318 89 512 89 1078 0 343 -4
492 -17 650 -48 558 -131 1049 -282 1670 -103 424 -128 597 -129 880 0 390 62
641 264 1060 101 210 139 302 300 718 35 89 67 162 73 162 13 0 122 -78 237
-169 129 -103 329 -303 430 -431 379 -477 669 -1213 764 -1940 31 -233 36
-369 36 -1017 l0 -663 58 0 59 0 6 353 c23 1217 -17 1628 -220 2236 -249 750
-584 1257 -1100 1668 -123 98 -148 136 -148 222 1 64 6 77 140 361 76 162 211
455 300 650 179 392 202 428 285 450 129 35 613 -96 925 -249 254 -125 468
-278 669 -477 391 -390 718 -982 865 -1569 93 -374 130 -677 156 -1300 9 -209
20 -427 23 -485 l7 -105 44 0 43 0 20 60 c18 56 19 83 14 430 -7 570 -57 972
-176 1431 -142 550 -386 1072 -662 1421 -89 113 -288 313 -401 404 -364 294
-785 480 -1317 583 l-165 32 -3 52 c-3 47 7 75 105 299 59 137 154 342 211
457 117 235 152 280 266 336 77 38 143 48 412 59 672 28 1253 -85 1773 -345
610 -305 1072 -755 1508 -1469 142 -233 208 -335 217 -335 14 0 -2 157 -26
243 -27 101 -137 324 -225 454 -241 359 -621 742 -1003 1013 -381 270 -782
427 -1310 514 -267 44 -531 66 -1059 86 -239 10 -276 13 -287 28 -10 14 -10
22 5 47 329 553 399 641 666 855 412 329 838 531 1290 611 114 21 163 24 390
24 206 0 283 -4 370 -18 561 -93 1034 -314 1684 -787 205 -150 227 -171 248
-236 16 -53 16 -57 -11 -208 -32 -181 -163 -807 -170 -814 -3 -2 -103 74 -223
170 -261 210 -310 244 -613 430 -678 416 -1239 729 -1392 776 -105 33 -279 55
-434 56 l-140 1 -85 -42 c-257 -127 -336 -341 -176 -479 64 -55 139 -89 638
-288 501 -199 705 -288 893 -391 308 -169 571 -381 987 -795 191 -190 229
-245 264 -380 27 -103 17 -269 -22 -385 -17 -50 -141 -311 -275 -580 -175
-349 -269 -551 -328 -703 -46 -116 -86 -212 -89 -212 -7 1 -62 77 -325 450
-584 830 -966 1296 -1357 1661 -260 242 -369 318 -679 472 l-205 102 -85 -1
c-137 -1 -265 -63 -290 -140 -17 -50 -6 -156 23 -236 47 -129 222 -359 461
-608 177 -183 288 -317 405 -490 211 -312 238 -368 781 -1665 423 -1008 472
-1119 566 -1287 49 -86 58 -109 59 -152 0 -38 -6 -59 -23 -83 -12 -18 -130
-120 -260 -227 -485 -397 -663 -558 -1035 -935 -147 -149 -269 -266 -271 -259
-11 33 -26 355 -26 538 0 369 -23 852 -56 1175 -88 873 -312 1622 -627 2095
-217 325 -518 595 -843 752 -105 51 -111 53 -194 53 -79 0 -91 -3 -135 -30
-33 -21 -57 -47 -79 -85 -29 -51 -31 -62 -31 -150 1 -194 27 -262 280 -736
329 -617 465 -850 664 -1139 373 -544 535 -915 596 -1373 30 -221 72 -1056 63
-1260 -5 -143 -31 -191 -163 -301 -268 -223 -1557 -1261 -1567 -1261 -3 0 -1
24 3 53 18 111 49 412 66 627 24 309 24 1314 1 2005 -10 275 -20 613 -23 750
-4 138 -11 270 -17 295 -51 211 -250 431 -456 502 -91 31 -208 32 -273 1 -162
-74 -203 -195 -216 -628 -10 -342 12 -487 139 -929 132 -463 148 -568 148
-998 0 -335 -16 -568 -76 -1098 -23 -202 -23 -568 0 -715 36 -227 87 -387 189
-591 127 -254 126 -329 -8 -389 -54 -24 -122 -41 -460 -111 -687 -142 -1362
-322 -1553 -415 -162 -79 -253 -182 -328 -374 -15 -38 -30 -73 -33 -77 -11
-12 -204 83 -471 231 -606 338 -948 473 -1404 553 -100 17 -170 21 -401 24
-158 1 -292 7 -307 13 -43 16 -62 54 -54 109 8 62 367 784 506 1016 397 667
934 1332 1504 1866 224 209 280 254 481 387 88 58 217 144 286 190 69 46 148
105 174 130 47 47 170 202 163 207 -1 1 -44 32 -94 69 -50 37 -111 76 -136 87
-96 42 -461 70 -673 51 -270 -25 -440 -71 -660 -181 -217 -108 -399 -256 -559
-455 -80 -99 -611 -885 -753 -1115 -252 -407 -277 -474 -383 -1008 -96 -484
-116 -663 -144 -1255 -8 -165 -17 -301 -19 -304 -13 -13 -381 326 -566 521
-202 214 -426 498 -484 616 -28 57 -32 74 -32 145 1 102 10 119 202 398 1095
1588 2262 2691 3638 3437 321 174 377 205 524 295 198 121 289 190 418 319
127 127 163 186 163 273 0 119 -82 219 -195 238 -63 10 -172 -18 -401 -101
-774 -282 -1438 -607 -1994 -977 -363 -241 -645 -471 -951 -777 -404 -403
-682 -769 -954 -1255 -67 -118 -457 -896 -798 -1588 l-92 -187 -97 227 c-53
126 -168 395 -255 598 -86 204 -223 503 -304 665 -81 162 -154 316 -163 343
-43 128 -42 252 5 369 60 154 361 521 719 878 296 296 578 533 902 758 406
281 695 438 2238 1217 1148 580 1165 589 1450 779 212 141 308 214 339 260 32
47 136 255 130 260 -16 13 -272 98 -308 103 -51 5 -188 -25 -464 -102 -284
-80 -477 -148 -732 -258 -759 -327 -1434 -710 -1990 -1130 -382 -288 -529
-425 -840 -787 -215 -251 -332 -377 -899 -973 -272 -287 -371 -384 -407 -403
l-48 -24 -61 193 c-124 391 -330 996 -388 1142 -112 280 -125 354 -83 451 72
162 451 501 871 779 242 161 442 275 790 449 868 437 1724 789 3340 1371 439
159 582 239 639 360 25 52 28 130 7 179 -38 91 -138 154 -322 202 -206 54
-634 40 -1144 -37 -695 -105 -1398 -355 -1992 -708 -324 -192 -566 -368 -723
-526 -117 -117 -381 -421 -582 -670 -163 -203 -232 -276 -304 -324 -150 -100
-208 -30 -263 319 -75 473 -129 1137 -107 1304 19 140 66 363 96 451 122 364
385 593 755 659 421 75 1004 134 2505 251 1164 91 1793 172 2424 311 453 100
683 210 757 360 24 49 26 59 16 93 -7 21 -25 56 -41 79 -58 79 -89 92 -472
201 -731 207 -986 259 -1437 292 -213 15 -701 7 -882 -16 -760 -93 -1361 -343
-1969 -818 -121 -94 -136 -104 -145 -89 -7 11 148 636 219 880 29 103 76 247
104 321 28 74 51 136 51 137 0 1 26 8 58 14 31 6 183 40 337 75 539 122 610
132 1200 169 159 10 908 -3 1055 -18z m1177 -11318 c-3 -7 -5 -2 -5 12 0 14 2
19 5 13 2 -7 2 -19 0 -25z"/>
</g>
</svg>
