<svg id="svg" version="1.1" width="480" height="512" xmlns="http://www.w3.org/2000/svg"><path d="M275.500 65.937 C 271.650 66.888,262.650 69.630,255.500 72.031 C 238.820 77.630,232.484 77.817,216.577 73.183 C 197.366 67.586,185.265 69.145,172.723 78.833 C 169.850 81.052,165.852 85.034,163.838 87.684 C 160.242 92.414,154.827 102.161,155.450 102.783 C 155.624 102.958,161.332 102.130,168.133 100.943 C 185.470 97.920,209.673 97.192,217.597 99.456 C 225.521 101.720,230.649 105.223,232.490 109.629 C 234.596 114.671,234.380 117.447,231.632 120.642 C 229.382 123.257,228.846 123.390,220.882 123.293 C 210.302 123.165,193.440 119.423,173.000 112.668 C 159.270 108.131,156.523 107.543,148.944 107.525 C 141.074 107.505,139.793 107.799,132.944 111.193 C 128.850 113.222,123.613 116.821,121.307 119.191 C 116.167 124.473,110.527 135.669,107.870 145.864 C 105.876 153.516,104.115 172.000,105.380 172.000 C 105.750 172.000,109.079 169.489,112.777 166.421 C 120.311 160.168,136.406 151.892,145.500 149.593 C 166.214 144.357,190.548 145.629,214.000 153.175 C 224.001 156.393,225.038 157.790,219.792 160.980 C 210.873 166.404,175.675 171.244,121.500 174.496 C 96.186 176.016,88.322 177.302,80.543 181.193 C 69.456 186.739,65.896 194.291,65.227 213.685 C 64.603 231.779,67.425 247.360,72.091 251.583 C 74.034 253.341,74.216 253.339,77.601 251.516 C 81.505 249.413,84.542 246.178,93.889 234.163 C 101.522 224.353,109.810 217.866,124.000 210.596 C 151.384 196.567,192.642 189.994,195.562 199.195 C 195.936 200.374,195.639 201.768,194.853 202.525 C 194.109 203.242,182.745 207.722,169.599 212.482 C 113.506 232.792,79.208 250.287,64.644 266.017 C 57.534 273.698,57.318 276.264,62.922 286.475 C 65.229 290.680,67.314 296.219,67.988 299.935 C 68.618 303.409,70.228 309.286,71.567 312.996 C 72.905 316.706,74.000 320.307,74.000 320.998 C 74.000 321.689,72.618 325.061,70.930 328.491 C 67.922 334.601,67.892 334.806,69.461 338.560 C 70.341 340.668,72.216 343.906,73.627 345.755 C 77.189 350.425,84.104 365.628,87.919 377.175 C 91.075 386.729,93.247 390.203,94.941 388.408 C 95.411 387.908,97.032 384.350,98.541 380.500 C 104.646 364.931,119.958 336.918,128.776 325.186 C 140.251 309.920,162.155 293.243,187.552 280.439 C 207.327 270.469,219.000 267.137,219.000 271.462 C 219.000 274.338,207.984 282.989,197.898 288.035 C 171.372 301.305,145.860 322.332,124.533 348.500 C 112.671 363.055,100.000 381.914,100.000 385.013 C 100.000 388.709,110.783 403.731,118.355 410.583 C 124.943 416.545,138.863 426.470,139.602 425.732 C 139.863 425.470,138.633 422.934,136.868 420.094 C 132.651 413.311,132.222 407.543,134.906 393.699 C 136.058 387.759,137.000 380.546,137.000 377.671 C 137.000 371.332,140.792 362.969,149.966 349.079 C 162.256 330.469,170.595 321.428,178.949 317.657 C 187.129 313.963,208.000 314.199,208.000 317.984 C 208.000 318.487,205.188 320.260,201.750 321.924 C 189.859 327.682,175.484 341.979,157.437 366.000 C 140.042 389.152,131.490 408.065,135.972 413.467 C 137.022 414.731,138.701 414.914,144.883 414.438 C 150.800 413.982,154.252 414.311,160.354 415.911 C 173.420 419.338,192.450 429.124,205.775 439.267 C 208.677 441.475,211.270 443.064,211.537 442.796 C 211.804 442.529,210.447 440.328,208.521 437.905 C 206.592 435.479,205.015 432.349,205.010 430.939 C 204.981 423.419,220.117 417.028,249.889 411.987 C 261.297 410.056,265.005 408.364,264.995 405.095 C 264.993 404.218,262.970 399.225,260.500 394.000 C 255.295 382.989,255.022 379.953,257.603 361.784 C 258.485 355.578,259.217 345.325,259.231 339.000 C 259.253 328.344,258.977 326.656,255.464 316.000 C 250.907 302.173,249.735 290.347,252.409 285.175 C 254.766 280.617,259.630 280.716,264.765 285.426 L 268.500 288.853 268.573 310.176 C 268.613 321.904,269.218 335.325,269.918 340.000 C 271.606 351.268,270.598 363.521,266.793 378.000 C 263.644 389.981,262.186 398.256,263.887 394.500 C 266.245 389.291,282.107 374.776,300.697 360.817 C 307.956 355.366,314.247 349.915,314.676 348.703 C 315.106 347.492,315.388 339.750,315.301 331.500 C 315.054 307.731,310.952 292.067,302.277 281.768 C 289.346 266.413,275.772 240.027,277.423 233.452 C 278.299 229.960,280.795 230.347,287.870 235.072 C 302.526 244.859,310.964 261.759,315.560 290.530 C 317.413 302.132,318.254 345.112,316.759 351.830 C 315.597 357.050,317.799 355.247,320.399 348.849 C 324.054 339.857,333.816 329.547,351.500 316.002 C 365.225 305.488,366.189 303.736,361.570 297.681 C 360.234 295.929,356.467 287.521,353.199 278.997 C 344.799 257.085,335.723 236.779,330.341 227.857 C 327.436 223.040,323.100 217.817,318.616 213.732 C 306.942 203.100,303.761 194.048,312.221 195.539 C 318.324 196.614,331.630 205.583,334.192 210.349 C 334.828 211.532,338.366 221.500,342.054 232.500 C 345.741 243.500,352.362 262.175,356.767 274.000 C 370.065 309.702,405.121 416.221,416.007 454.000 C 420.722 470.361,421.923 473.218,421.970 468.172 C 421.986 466.342,420.161 458.467,417.913 450.672 C 407.663 415.130,372.558 308.663,359.001 272.000 C 349.638 246.682,338.888 215.779,339.300 215.367 C 339.477 215.189,341.331 217.284,343.418 220.021 C 352.246 231.597,418.213 403.973,430.614 447.869 C 434.860 462.897,434.801 466.080,430.249 467.551 C 425.003 469.246,424.500 470.598,429.276 470.166 C 435.669 469.587,437.343 467.594,436.618 461.419 C 435.401 451.046,424.308 417.153,405.715 367.000 C 392.991 332.678,366.691 265.244,357.647 243.750 C 355.159 237.838,353.433 233.008,353.812 233.018 C 354.190 233.028,360.213 241.690,367.195 252.268 C 380.116 271.842,385.410 278.924,386.389 277.945 C 386.689 277.644,385.120 274.496,382.901 270.949 C 376.905 261.364,377.426 257.893,387.889 237.714 C 395.310 223.402,395.999 221.579,395.992 216.286 C 395.985 211.788,395.373 209.462,393.242 205.839 C 384.237 190.531,362.682 176.336,337.428 169.082 C 333.538 167.965,329.531 166.139,328.523 165.025 C 326.749 163.065,326.749 162.935,328.514 160.985 C 333.083 155.935,341.861 156.895,355.920 163.981 C 366.165 169.145,383.935 181.402,396.540 192.000 C 408.817 202.322,408.670 202.256,405.523 196.045 C 402.080 189.250,402.456 185.456,408.701 164.000 C 411.182 155.475,413.450 145.700,413.741 142.277 C 414.250 136.286,414.152 135.944,411.104 133.097 C 407.685 129.903,401.228 127.389,393.885 126.392 L 389.270 125.765 390.673 122.953 C 393.400 117.488,394.499 109.413,393.298 103.683 C 390.597 90.807,384.551 83.363,370.800 75.985 C 362.748 71.664,362.231 71.530,353.500 71.515 C 346.118 71.503,343.760 71.896,340.384 73.702 C 325.179 81.836,314.333 101.268,310.398 127.424 C 308.547 139.723,306.567 143.831,307.709 133.000 C 308.144 128.875,308.500 116.725,308.500 106.000 C 308.500 90.361,308.159 85.399,306.776 80.937 C 304.635 74.025,301.462 69.228,297.078 66.274 C 292.945 63.488,285.860 63.378,275.500 65.937 M295.605 68.901 C 304.823 74.522,308.600 94.539,306.095 124.500 C 304.685 141.359,303.351 148.651,301.548 149.343 C 300.808 149.627,294.645 146.217,287.851 141.764 C 274.119 132.764,256.515 116.195,249.284 105.464 C 238.086 88.848,214.275 76.051,194.500 76.020 C 187.871 76.010,181.453 77.458,180.372 79.207 C 179.891 79.985,180.271 80.102,181.586 79.580 C 182.639 79.162,186.880 78.579,191.010 78.284 C 208.404 77.041,233.059 88.777,244.253 103.629 C 259.834 124.301,269.484 133.432,288.299 145.308 C 299.514 152.386,299.399 152.275,298.635 155.316 C 297.775 158.745,294.822 159.199,284.414 157.504 C 266.342 154.562,247.249 148.125,228.000 138.488 C 207.446 128.197,188.893 124.000,163.956 124.000 C 142.483 124.000,122.577 127.494,118.522 131.976 L 116.691 133.998 122.484 132.006 C 134.193 127.977,144.529 126.654,164.000 126.689 C 190.117 126.738,205.171 130.091,226.000 140.502 C 245.915 150.455,271.716 158.739,288.349 160.521 C 294.599 161.190,295.014 161.385,294.401 163.370 C 292.809 168.526,289.848 172.994,287.738 173.423 C 286.507 173.673,272.225 174.114,256.000 174.403 C 221.020 175.027,198.363 176.403,180.221 179.007 C 168.521 180.687,162.337 182.457,128.221 193.897 C 106.924 201.038,85.112 207.913,79.750 209.174 C 74.387 210.436,70.000 211.813,70.000 212.234 C 70.000 215.044,85.859 210.816,127.000 197.036 C 146.525 190.497,164.975 184.471,168.000 183.645 C 181.065 180.079,215.217 177.357,261.596 176.185 L 288.691 175.500 287.243 179.000 C 286.446 180.925,283.339 187.314,280.338 193.198 L 274.883 203.895 270.191 204.475 C 228.595 209.615,183.507 221.410,149.000 236.176 C 128.108 245.117,106.738 257.254,91.500 268.835 C 82.289 275.834,70.000 288.096,70.000 290.287 C 70.000 291.720,72.301 290.037,78.801 283.852 C 107.027 256.991,146.920 236.252,198.890 221.421 C 215.273 216.746,247.557 209.874,262.000 207.988 C 266.675 207.378,271.541 206.452,272.814 205.932 C 274.086 205.411,274.939 205.326,274.710 205.742 C 274.163 206.735,270.042 215.603,265.677 225.180 C 263.761 229.386,261.362 233.262,260.346 233.794 C 259.331 234.326,256.025 235.275,253.000 235.902 C 242.833 238.012,229.595 242.188,215.500 247.733 C 172.328 264.715,130.488 292.592,94.228 328.533 C 83.386 339.279,79.119 344.147,79.552 345.275 C 80.008 346.463,84.001 343.024,95.335 331.683 C 110.770 316.237,132.852 297.728,150.000 285.863 C 176.866 267.272,209.798 250.978,237.711 242.464 C 245.804 239.996,260.000 236.861,260.000 237.543 C 260.000 237.713,257.137 244.748,253.637 253.176 C 250.138 261.604,246.669 270.197,245.929 272.272 C 244.055 277.523,241.437 279.653,231.389 284.105 C 217.890 290.085,194.169 303.132,190.132 306.796 C 186.864 309.762,186.750 310.023,189.000 309.409 C 190.375 309.033,193.300 307.499,195.500 305.999 C 200.384 302.669,223.695 290.377,234.120 285.635 L 241.740 282.169 237.273 294.835 C 234.816 301.801,231.877 310.200,230.742 313.500 C 227.788 322.091,226.880 323.153,217.703 328.761 C 200.355 339.362,181.870 356.009,173.020 369.000 C 165.390 380.202,159.157 395.634,158.823 404.150 C 158.587 410.163,159.703 409.749,161.033 403.329 C 164.584 386.184,173.506 370.548,188.015 356.039 C 196.671 347.383,214.003 333.704,222.107 329.133 C 225.883 327.003,226.230 326.953,225.562 328.633 C 219.103 344.888,203.984 407.314,204.039 417.500 C 204.076 424.208,205.796 419.391,208.028 406.334 C 210.211 393.561,215.299 371.816,220.039 355.000 C 223.922 341.223,236.278 303.998,236.964 304.008 C 237.507 304.016,240.514 317.973,244.049 336.894 C 246.514 350.086,249.016 373.766,248.945 383.222 C 248.916 387.225,248.332 394.213,247.649 398.750 C 246.966 403.288,246.776 407.000,247.228 407.000 C 249.041 407.000,250.227 400.875,250.739 388.876 C 251.605 368.572,248.459 342.141,241.967 315.173 C 238.356 300.173,238.338 299.010,241.568 290.369 C 245.272 280.459,250.908 266.333,253.601 260.206 L 255.929 254.912 258.763 256.377 C 263.304 258.725,275.461 272.204,279.287 279.132 C 283.904 287.493,287.462 297.673,290.168 310.266 C 291.981 318.705,292.379 323.868,292.433 339.700 C 292.478 352.499,292.833 358.567,293.500 357.901 C 295.010 356.393,295.359 332.300,294.039 320.714 C 290.825 292.496,280.391 269.710,265.024 257.351 C 261.462 254.487,258.397 251.692,258.214 251.142 C 257.335 248.506,272.893 214.639,275.429 213.666 C 278.216 212.596,290.871 215.715,298.465 219.343 C 314.506 227.008,328.249 243.548,334.323 262.500 C 337.593 272.704,340.000 287.791,340.011 298.157 C 340.024 310.177,340.867 316.816,342.128 314.827 C 343.648 312.430,343.038 293.734,341.041 281.500 C 334.822 243.407,317.775 221.041,288.849 213.025 C 284.829 211.911,280.545 211.000,279.329 211.000 C 278.113 211.000,276.858 210.579,276.540 210.064 C 275.852 208.951,284.055 190.069,287.496 184.844 C 289.883 181.219,289.980 181.181,298.702 180.454 C 315.539 179.051,334.437 183.070,349.000 191.151 C 359.578 197.022,373.950 211.685,379.986 222.765 C 384.211 230.523,386.018 232.626,385.986 229.750 C 385.978 229.063,384.134 225.128,381.888 221.007 C 373.356 205.353,362.254 194.659,346.504 186.920 C 334.506 181.026,325.123 178.963,306.721 178.176 L 290.943 177.500 294.837 169.453 C 300.522 157.708,310.374 149.918,328.500 142.837 C 338.770 138.825,352.903 137.835,362.998 140.421 C 374.023 143.245,403.198 159.899,404.543 164.135 C 404.870 165.167,404.473 168.372,403.659 171.256 C 402.845 174.140,401.656 179.720,401.015 183.656 L 399.851 190.813 391.530 184.137 C 365.197 163.008,343.190 152.477,331.504 155.410 C 328.072 156.271,324.000 160.657,324.000 163.491 C 324.000 166.976,326.748 168.635,339.016 172.562 C 359.549 179.133,376.049 189.244,386.698 201.780 C 396.033 212.770,395.869 217.119,385.399 236.220 C 381.866 242.665,378.390 250.224,377.675 253.018 C 376.960 255.811,375.953 257.985,375.438 257.850 C 374.922 257.715,372.064 253.986,369.087 249.564 C 351.286 223.123,331.170 200.655,321.000 195.853 C 312.832 191.996,308.546 191.454,306.038 193.962 C 304.917 195.083,304.000 196.693,304.000 197.540 C 304.000 201.086,308.862 208.085,317.566 217.068 C 326.299 226.082,327.270 227.528,334.345 242.068 C 340.804 255.339,347.831 272.197,354.413 290.210 C 355.360 292.800,357.229 296.532,358.567 298.504 C 359.905 300.476,361.000 302.676,361.000 303.394 C 361.000 304.113,356.387 308.249,350.750 312.587 C 340.444 320.517,324.559 335.514,321.919 339.806 C 320.661 341.851,320.486 339.923,320.377 322.806 C 320.118 282.291,312.266 254.000,297.102 238.947 C 290.892 232.783,283.131 228.000,279.340 228.000 C 276.708 228.000,274.000 231.043,274.000 233.998 C 274.000 242.619,287.874 269.288,299.493 283.000 C 304.565 288.985,308.511 297.731,310.548 307.500 C 312.276 315.788,313.718 342.002,312.674 346.161 C 312.306 347.627,308.731 350.985,303.290 354.975 C 291.289 363.774,280.652 372.367,273.583 378.971 C 270.328 382.012,267.957 383.698,268.314 382.718 C 271.690 373.437,272.406 367.874,272.269 352.000 C 272.055 327.332,271.449 291.739,271.210 289.753 C 270.838 286.661,263.987 280.077,259.855 278.838 C 256.384 277.798,255.615 277.896,253.215 279.677 C 246.744 284.478,246.482 297.365,252.487 315.500 C 257.415 330.381,257.829 337.750,255.014 360.470 C 253.790 370.353,253.044 380.302,253.356 382.579 C 253.668 384.856,255.738 390.575,257.957 395.289 C 260.176 400.003,261.723 404.557,261.396 405.410 C 260.800 406.963,255.258 408.976,251.500 409.004 C 250.400 409.012,245.000 409.925,239.500 411.033 C 217.285 415.507,204.997 420.930,202.725 427.264 C 202.087 429.044,201.657 430.821,201.770 431.214 C 202.104 432.373,198.926 430.890,192.000 426.655 C 184.037 421.785,176.018 418.091,165.500 414.447 C 158.952 412.179,155.685 411.660,147.500 411.588 L 137.500 411.500 137.180 408.717 C 136.512 402.896,150.253 379.377,165.643 360.000 C 169.356 355.325,177.593 346.298,183.947 339.941 C 193.597 330.285,196.818 327.732,203.500 324.438 C 212.650 319.928,214.099 317.422,209.355 314.313 C 207.087 312.827,204.507 312.500,195.044 312.500 C 184.150 312.500,183.123 312.679,176.799 315.674 C 168.452 319.629,163.672 324.392,153.391 339.000 C 138.677 359.908,134.000 369.791,134.000 379.975 C 134.000 383.221,133.317 388.819,132.483 392.416 C 130.681 400.186,130.198 410.153,131.391 414.957 L 132.250 418.414 126.206 413.179 C 114.169 402.750,103.066 389.126,103.019 384.726 C 103.009 383.750,104.815 380.375,107.034 377.226 C 109.253 374.077,112.804 369.010,114.924 365.967 C 125.398 350.936,143.661 330.900,158.288 318.392 C 171.658 306.958,183.314 298.975,197.213 291.730 C 213.688 283.144,220.705 277.654,222.521 271.934 C 223.609 268.505,220.307 265.729,216.031 266.478 C 200.666 269.171,172.394 283.351,152.500 298.343 C 139.743 307.957,128.580 319.426,121.729 329.959 C 113.851 342.071,96.175 377.051,95.362 382.140 C 95.022 384.263,94.464 385.996,94.122 385.992 C 93.780 385.988,91.993 381.251,90.151 375.466 C 86.660 364.502,80.798 351.706,74.614 341.552 C 72.130 337.473,71.195 334.958,71.640 333.552 C 73.342 328.176,80.964 318.386,91.217 308.405 C 107.719 292.344,124.533 281.234,151.713 268.434 C 198.453 246.421,215.714 235.546,212.369 230.214 C 209.123 225.039,190.742 229.617,166.874 241.545 C 135.481 257.233,111.804 275.136,103.453 289.500 C 101.854 292.250,95.224 299.735,88.719 306.133 C 77.139 317.523,76.862 317.720,75.453 315.568 C 73.955 313.282,70.000 299.012,70.000 295.894 C 70.000 294.911,68.200 290.629,66.000 286.378 C 63.800 282.126,62.000 277.426,62.000 275.932 C 62.000 270.291,76.821 257.501,95.058 247.404 C 102.322 243.382,109.110 240.151,131.500 230.059 C 138.392 226.953,169.959 215.009,182.500 210.762 C 195.154 206.477,199.000 204.071,199.000 200.436 C 199.000 193.787,190.414 191.280,173.523 192.998 C 145.966 195.801,115.828 208.056,99.515 223.093 C 97.050 225.365,91.915 231.336,88.103 236.362 C 79.893 247.187,76.027 250.471,73.589 248.689 C 69.614 245.782,66.227 222.077,67.869 208.651 C 69.279 197.128,72.126 190.759,77.807 186.421 C 86.405 179.856,92.972 178.720,138.000 176.007 C 184.302 173.216,217.318 167.725,223.750 161.744 C 229.062 156.804,225.300 153.412,209.765 149.133 C 195.251 145.135,187.275 144.042,172.500 144.027 C 154.544 144.009,142.527 146.422,129.000 152.761 C 121.678 156.192,110.355 163.669,108.425 166.348 C 106.680 168.771,106.605 170.196,109.075 154.000 C 110.444 145.026,114.838 133.097,119.202 126.508 C 123.157 120.538,132.577 113.500,139.278 111.510 C 147.285 109.132,153.829 109.612,165.768 113.450 C 194.012 122.531,209.390 126.002,221.360 125.996 C 233.885 125.991,238.134 122.231,236.332 112.750 C 234.680 104.057,229.825 99.872,217.888 96.851 C 210.567 94.998,207.720 94.803,195.500 95.314 C 181.461 95.902,163.041 98.392,159.733 100.150 C 156.082 102.089,168.525 86.765,175.190 81.113 C 186.572 71.461,196.655 70.176,216.393 75.862 C 232.769 80.580,239.097 80.313,258.328 74.093 C 277.447 67.910,280.239 67.230,287.000 67.107 C 290.777 67.039,293.472 67.600,295.605 68.901 M369.000 78.040 C 376.644 82.068,386.124 91.056,388.563 96.590 C 391.126 102.406,391.092 115.316,388.500 120.500 C 386.703 124.094,386.078 124.531,382.335 124.803 C 378.537 125.080,377.921 124.775,375.335 121.339 C 367.214 110.546,359.851 105.817,353.609 107.383 C 350.357 108.200,344.344 113.434,342.449 117.099 C 340.449 120.966,340.634 123.359,343.105 125.595 C 345.010 127.319,347.071 127.515,364.855 127.660 C 387.305 127.843,397.214 129.036,404.683 132.455 C 408.538 134.220,410.100 135.550,410.585 137.481 C 411.465 140.989,410.391 148.531,407.838 156.761 C 406.091 162.394,405.614 163.144,404.935 161.329 C 403.125 156.491,375.936 141.181,363.511 138.003 C 359.204 136.901,353.306 136.000,350.405 136.000 C 338.208 136.000,321.129 141.666,309.186 149.674 C 305.616 152.068,302.561 153.894,302.397 153.731 C 301.302 152.635,314.223 136.986,326.218 124.880 C 345.840 105.077,357.406 96.716,368.682 94.183 C 375.040 92.754,378.784 93.826,383.619 98.460 C 388.260 102.907,389.217 102.508,386.114 97.420 C 380.436 88.108,366.333 89.271,349.553 100.436 C 339.504 107.122,320.865 124.646,315.470 132.479 C 313.379 135.516,311.518 137.852,311.336 137.670 C 311.154 137.488,311.466 134.675,312.029 131.419 C 316.005 108.424,322.616 93.558,333.841 82.377 C 340.803 75.443,344.859 73.850,354.500 74.269 C 361.291 74.563,363.483 75.133,369.000 78.040 M362.422 112.401 C 365.886 114.432,373.000 122.510,373.000 124.413 C 373.000 125.176,350.171 125.153,347.319 124.388 C 346.120 124.066,344.885 123.144,344.576 122.338 C 343.869 120.496,346.088 116.154,349.155 113.377 C 353.610 109.345,356.805 109.110,362.422 112.401 M207.437 234.126 C 202.252 239.645,191.315 245.890,158.551 262.042 C 140.923 270.733,122.225 280.687,117.000 284.163 C 103.763 292.970,104.638 292.467,105.637 290.700 C 107.237 287.871,119.108 276.049,126.331 270.091 C 136.746 261.500,152.383 251.850,169.500 243.450 C 187.272 234.728,197.513 231.148,204.937 231.063 L 210.374 231.000 207.437 234.126 " stroke="none" fill="undefined" fill-rule="evenodd"/></svg>