<?xml version="1.0" standalone="no"?>
<!DOCTYPE svg PUBLIC "-//W3C//DTD SVG 20010904//EN"
 "http://www.w3.org/TR/2001/REC-SVG-20010904/DTD/svg10.dtd">
<svg version="1.0" xmlns="http://www.w3.org/2000/svg"
 width="1576.000000pt" height="1694.000000pt" viewBox="0 0 1576.000000 1694.000000"
 preserveAspectRatio="xMidYMid meet">

<g transform="translate(0.000000,1694.000000) scale(0.100000,-0.100000)"
fill="#000000" stroke="none">
<path d="M9280 16910 c-147 -27 -592 -155 -1178 -339 -374 -118 -526 -145
-802 -144 -227 1 -325 17 -665 108 -318 86 -439 112 -592 130 -724 85 -1318
-196 -1741 -824 -44 -64 -112 -174 -152 -246 -40 -71 -98 -172 -127 -224 -30
-51 -52 -96 -49 -98 2 -3 116 12 253 32 136 20 367 54 513 75 554 81 1000 111
1347 92 634 -35 918 -138 1081 -390 65 -100 97 -201 97 -302 0 -101 -21 -156
-83 -218 -68 -68 -123 -82 -325 -82 -454 0 -634 32 -1427 255 -1370 384 -1383
387 -1670 386 -582 -1 -1059 -280 -1395 -816 -204 -326 -356 -792 -410 -1260
-20 -169 -30 -444 -21 -567 l8 -97 91 73 c772 613 1452 915 2222 987 171 17
711 17 895 1 309 -27 640 -85 903 -158 235 -65 564 -186 711 -261 l38 -19 -55
-51 c-83 -75 -129 -98 -298 -147 -514 -150 -347 -128 -3064 -386 -1519 -144
-1758 -172 -2128 -250 -249 -53 -408 -119 -559 -233 -194 -146 -326 -366 -373
-621 -54 -296 -66 -1183 -20 -1491 44 -297 130 -583 205 -689 86 -119 220
-116 375 9 144 114 306 292 479 523 372 497 787 846 1291 1088 397 190 1081
427 1612 558 305 75 334 78 821 83 l433 5 76 -75 77 -75 -64 -66 c-62 -65 -65
-67 -239 -135 -97 -38 -419 -161 -716 -274 -1905 -722 -2614 -1034 -3350
-1470 -411 -243 -582 -369 -900 -664 -367 -340 -386 -365 -393 -518 -5 -112 4
-154 84 -374 34 -97 113 -320 174 -496 61 -176 151 -423 200 -550 108 -283
124 -350 118 -494 -6 -125 -28 -194 -107 -329 -84 -147 -99 -257 -53 -380 11
-28 58 -110 104 -183 252 -395 451 -825 705 -1524 36 -99 77 -202 90 -229 39
-76 156 -247 163 -239 4 4 106 211 226 458 336 693 703 1423 802 1596 717
1250 1825 2114 3641 2841 207 82 253 94 388 102 129 7 135 -2 69 -96 -60 -85
-93 -115 -296 -263 -245 -180 -367 -258 -585 -375 -595 -320 -1056 -620 -1494
-973 -587 -473 -1053 -977 -1686 -1822 -421 -561 -766 -1042 -786 -1095 -13
-34 -23 -88 -26 -140 -4 -83 -4 -87 35 -165 21 -44 65 -123 97 -175 280 -463
657 -841 1190 -1194 262 -174 275 -182 275 -162 0 8 -31 118 -68 243 -38 125
-72 241 -76 258 -7 28 -7 29 11 13 58 -53 191 -77 423 -78 144 0 323 -14 460
-36 386 -60 903 -268 1388 -558 151 -90 240 -148 692 -455 91 -61 166 -107
168 -101 2 5 -1 33 -8 62 -11 53 -22 76 -113 225 -144 237 -119 351 110 497
145 93 242 131 538 212 488 132 932 242 1190 294 360 73 453 104 508 170 68
80 47 179 -103 490 -101 210 -160 377 -192 548 -18 97 -22 151 -22 317 1 174
5 225 32 395 128 800 119 1443 -27 2012 -28 106 -48 169 -139 428 -27 77 -31
104 -41 290 -16 299 -14 525 4 588 30 99 97 145 213 145 181 -1 393 -208 422
-414 11 -71 45 -1040 61 -1699 14 -584 -4 -1019 -62 -1495 -27 -221 -54 -354
-145 -718 -41 -165 -73 -304 -72 -309 2 -4 136 109 298 253 320 284 782 690
950 835 138 119 361 297 591 472 102 77 209 166 237 197 60 65 106 157 120
235 15 87 -3 1085 -22 1250 -53 446 -149 787 -316 1120 -103 205 -193 337
-446 655 -318 400 -571 875 -718 1348 -25 81 -46 164 -46 185 1 35 24 159 31
166 7 7 134 -14 180 -29 25 -9 88 -43 140 -76 305 -198 537 -452 727 -799 188
-345 376 -974 452 -1515 52 -372 53 -399 57 -1584 l4 -1114 50 49 c27 26 52
57 55 69 30 95 167 336 277 485 218 297 434 500 1097 1035 395 319 437 357
475 427 26 46 30 63 30 128 -1 82 -15 119 -90 230 -82 121 -110 185 -583 1335
-154 374 -308 743 -342 820 -284 642 -557 1056 -930 1409 -198 187 -260 264
-347 434 -51 98 -56 146 -20 188 34 40 87 36 222 -13 444 -164 684 -343 833
-623 38 -71 269 -713 844 -2350 1107 -3153 1929 -5647 2532 -7685 89 -300 212
-675 231 -702 3 -4 99 29 108 36 12 12 -329 1178 -630 2151 -544 1764 -1069
3340 -2308 6935 -235 682 -430 1247 -433 1255 -7 24 80 -107 142 -213 32 -54
75 -135 96 -180 33 -73 552 -1390 1177 -2987 648 -1657 1341 -3460 1525 -3965
195 -536 803 -2424 843 -2620 30 -146 -2 -200 -178 -305 -83 -50 -92 -58 -95
-88 l-3 -32 98 0 c232 0 330 68 341 236 6 91 -5 151 -84 471 -121 492 -227
832 -544 1753 -579 1681 -1231 3401 -2387 6300 -386 967 -401 1005 -377 975 8
-11 283 -410 610 -887 l595 -866 35 20 c19 11 37 24 40 30 10 16 -38 121 -91
198 -120 172 -165 299 -172 480 -8 205 38 363 182 630 129 238 337 665 432
885 53 122 76 231 75 360 0 246 -66 382 -348 711 -320 373 -690 656 -1169 893
-231 115 -441 199 -774 312 -316 107 -427 152 -497 200 -137 94 -67 189 179
244 116 26 232 21 356 -16 215 -64 485 -172 631 -251 89 -48 369 -236 635
-426 238 -170 1174 -861 1235 -911 45 -38 84 -63 171 -114 l47 -26 -57 112
c-89 176 -119 330 -100 526 12 131 34 233 114 536 167 631 298 1177 315 1320
39 317 -116 444 -750 613 l-185 50 3 48 c1 27 16 132 32 234 37 235 53 422 45
530 -14 178 -59 349 -133 495 -147 295 -467 587 -859 784 -570 285 -1189 203
-1636 -218 -208 -197 -439 -570 -597 -966 -107 -270 -171 -504 -250 -920 -29
-148 -54 -272 -56 -274 -2 -2 -4 322 -3 720 1 729 -7 993 -37 1229 -40 317
-129 527 -293 691 -69 69 -103 94 -171 127 -127 62 -182 74 -365 78 -126 3
-182 -1 -265 -16z m480 -50 c270 -77 444 -282 530 -625 67 -262 80 -526 81
-1610 1 -456 4 -855 7 -885 l7 -55 27 140 c163 859 184 953 270 1215 110 336
236 594 429 880 138 205 273 342 444 452 135 88 242 134 400 174 138 36 385
44 537 19 218 -36 443 -129 668 -276 294 -193 485 -387 603 -616 95 -184 137
-360 137 -577 0 -145 -7 -213 -50 -486 -16 -102 -30 -205 -32 -230 l-3 -44
200 -54 c366 -98 546 -170 644 -258 85 -76 96 -106 95 -254 0 -116 -4 -142
-58 -370 -66 -279 -158 -643 -252 -1000 -99 -376 -117 -469 -118 -640 -1 -157
13 -243 60 -361 13 -35 22 -64 21 -66 -2 -1 -21 12 -43 31 -48 41 -852 636
-1144 847 -701 506 -849 590 -1315 742 -194 64 -268 75 -386 57 -298 -43 -430
-167 -317 -296 49 -56 222 -133 534 -238 559 -188 888 -341 1249 -581 266
-177 487 -373 688 -608 293 -342 355 -474 344 -727 -4 -74 -13 -142 -27 -190
-28 -100 -169 -401 -404 -865 -208 -411 -236 -483 -256 -663 -24 -215 43 -445
182 -631 43 -57 83 -147 70 -155 -5 -3 -242 336 -527 752 -286 416 -564 821
-617 899 l-98 142 -30 -17 c-16 -9 -30 -22 -30 -28 0 -14 116 -309 525 -1334
814 -2041 1308 -3324 1795 -4665 351 -965 715 -2021 845 -2450 115 -383 247
-907 261 -1037 12 -115 -21 -194 -94 -232 -37 -19 -133 -36 -201 -36 l-56 0
65 36 c154 85 220 165 220 263 0 75 -30 180 -246 869 -368 1175 -527 1641
-862 2522 -771 2023 -2380 6137 -2476 6329 -87 174 -252 430 -370 576 -28 35
-69 157 509 -1520 1554 -4507 2217 -6541 2849 -8742 88 -308 86 -296 65 -301
-29 -6 -82 148 -269 778 -625 2102 -1446 4582 -2643 7980 -534 1516 -650 1838
-690 1920 -80 163 -224 324 -391 435 -145 96 -467 239 -601 268 -65 13 -100 4
-142 -38 -30 -30 -33 -38 -33 -94 0 -52 6 -72 44 -145 86 -164 141 -232 371
-461 284 -283 424 -464 620 -805 167 -289 240 -452 690 -1545 435 -1055 431
-1047 529 -1199 66 -102 80 -138 80 -201 0 -74 -42 -144 -134 -223 -41 -35
-212 -175 -380 -311 -455 -368 -547 -447 -751 -650 -276 -277 -419 -469 -556
-748 -41 -84 -78 -153 -81 -153 -3 0 -3 271 1 603 7 733 -5 1499 -28 1722 -31
322 -77 584 -152 880 -223 882 -559 1419 -1095 1751 -107 66 -140 79 -244 93
-44 7 -88 14 -100 16 -18 4 -22 -4 -37 -84 -9 -48 -17 -111 -17 -139 0 -106
138 -492 278 -777 159 -323 317 -564 597 -910 143 -178 246 -339 345 -540 167
-337 257 -665 306 -1110 18 -167 35 -1069 22 -1185 -9 -78 -51 -168 -109 -234
-23 -26 -123 -109 -222 -184 -395 -299 -615 -484 -1367 -1150 -211 -188 -385
-340 -386 -339 -1 1 27 119 62 262 79 316 106 462 133 710 55 494 70 939 52
1560 -21 747 -51 1540 -61 1600 -29 177 -191 361 -367 415 -78 24 -122 25
-192 4 -71 -21 -125 -71 -152 -142 -21 -56 -21 -66 -15 -387 7 -415 12 -458
71 -610 241 -630 291 -1327 159 -2225 -46 -312 -53 -383 -54 -522 0 -303 64
-577 197 -837 71 -137 141 -308 153 -370 12 -65 -2 -113 -43 -146 -47 -37
-189 -78 -469 -134 -270 -55 -620 -141 -1138 -281 -359 -97 -449 -132 -613
-239 -245 -161 -264 -309 -78 -596 98 -149 93 -152 -70 -39 -651 446 -996 641
-1429 807 -387 148 -591 189 -1075 212 -291 13 -334 20 -388 57 -69 48 -76
144 -22 305 103 309 261 657 383 844 310 476 1350 1791 1615 2043 94 88 239
202 404 317 81 56 222 155 313 219 91 64 202 138 248 164 45 26 82 51 82 54 0
4 -29 26 -64 50 -57 39 -73 45 -178 62 -534 87 -957 11 -1276 -230 -79 -60
-276 -255 -417 -415 -345 -389 -619 -792 -839 -1235 -202 -407 -236 -526 -291
-1001 -29 -253 -44 -357 -81 -544 -59 -303 -44 -447 96 -909 28 -92 48 -171
45 -174 -9 -9 -368 237 -498 341 -405 324 -680 639 -908 1042 l-74 130 1 80
c1 61 7 94 26 140 16 39 122 193 303 440 763 1043 1076 1434 1475 1839 314
319 552 528 901 790 373 281 773 533 1254 791 225 121 367 212 635 409 187
138 212 162 289 272 l42 61 -17 43 -17 43 -136 -7 c-161 -8 -193 -18 -550
-166 -1472 -611 -2443 -1302 -3143 -2235 -303 -403 -432 -643 -1213 -2247 -83
-169 -152 -308 -155 -308 -3 0 -31 40 -62 88 -47 71 -73 131 -143 322 -233
638 -446 1105 -665 1455 -150 240 -155 252 -155 366 0 92 1 99 38 165 115 213
140 288 141 434 0 126 -22 217 -104 430 -78 201 -138 368 -280 775 -56 160
-123 349 -148 420 -68 196 -69 310 -2 415 46 71 485 478 680 629 182 142 521
354 853 535 659 359 1347 651 3087 1311 294 112 604 230 689 264 l155 60 83
83 c46 45 83 85 83 89 0 11 -155 161 -180 174 -39 20 -510 30 -743 16 -221
-13 -351 -34 -597 -96 -619 -155 -1408 -446 -1766 -649 -266 -152 -478 -311
-698 -525 -167 -163 -277 -290 -430 -494 -142 -188 -280 -344 -400 -448 -211
-185 -320 -183 -411 6 -57 120 -127 387 -162 620 -15 102 -18 190 -18 585 0
616 18 833 86 1026 102 292 319 497 639 605 100 33 308 79 493 109 296 47 585
78 2242 235 1476 140 1986 192 2131 216 210 34 640 151 734 199 57 29 204 150
214 176 10 27 -309 166 -589 257 -469 152 -895 221 -1445 234 -756 17 -1256
-85 -1845 -375 -294 -145 -539 -299 -842 -528 l-162 -123 -7 65 c-8 80 2 303
22 483 50 448 182 877 367 1195 103 176 185 285 317 417 224 225 459 353 774
421 136 30 471 32 611 5 118 -23 528 -132 1005 -267 1172 -330 1252 -346 1775
-352 189 -2 203 -1 259 21 72 29 147 100 179 169 19 39 22 65 22 157 -1 101
-3 117 -33 189 -44 107 -110 204 -185 271 -78 71 -247 155 -377 189 -230 61
-593 92 -960 83 -373 -9 -636 -36 -1240 -127 -452 -68 -455 -68 -458 -65 -4 3
193 352 243 430 78 122 182 253 284 359 271 278 562 436 926 502 75 13 149 18
295 18 275 -1 328 -10 965 -178 230 -60 307 -70 545 -70 319 0 407 17 985 198
589 185 936 280 1095 300 87 11 296 -3 370 -24z m-3763 -10438 c81 -13 134
-27 158 -42 19 -12 35 -25 35 -28 0 -4 -31 -25 -68 -46 -37 -22 -134 -87 -217
-146 -82 -59 -217 -153 -298 -209 -197 -136 -333 -246 -437 -350 -299 -301
-1234 -1482 -1568 -1981 -141 -210 -294 -538 -412 -883 l-48 -139 -7 71 c-9
92 -1 174 41 403 19 103 50 319 69 478 60 503 93 616 289 1010 254 510 598
990 1029 1437 135 139 242 227 350 287 131 73 281 125 444 151 126 20 477 13
640 -13z"/>
</g>
</svg>
